<svg width="264" height="47" viewBox="0 0 264 47" fill="none" xmlns="http://www.w3.org/2000/svg">
<mask id="mask0_9_512" style="mask-type:luminance" maskUnits="userSpaceOnUse" x="0" y="0" width="60" height="47">
<path d="M0 0H59.1978V46.7055H0V0Z" fill="white"/>
</mask>
<g mask="url(#mask0_9_512)">
<path d="M27.0935 40.369C27.1867 40.4664 27.2703 40.5723 27.343 40.6854C27.4158 40.7985 27.4767 40.9173 27.5263 41.0419C27.5759 41.166 27.6126 41.2937 27.6374 41.4251C27.6616 41.5564 27.6729 41.6883 27.6713 41.8217C27.6702 41.9552 27.6557 42.0871 27.6282 42.2174C27.6007 42.3482 27.5608 42.4749 27.5085 42.5984C27.4562 42.722 27.3926 42.8392 27.3172 42.9508C27.2417 43.0623 27.1565 43.1661 27.0606 43.262C26.3555 44.0147 25.6095 44.7278 24.8231 45.4013C24.4441 45.6609 24.0366 45.8668 23.5995 46.0195C23.4873 46.0289 23.3747 46.0304 23.262 46.0237C23.1499 46.0174 23.0383 46.0028 22.9278 45.9804C22.8173 45.958 22.7095 45.9283 22.6039 45.8902C22.4977 45.8527 22.3958 45.8079 22.2966 45.7552C22.1974 45.7031 22.1031 45.6442 22.0131 45.5785C21.9231 45.5128 21.8384 45.4414 21.7592 45.3637C21.68 45.2861 21.6072 45.2032 21.5409 45.1151C21.474 45.027 21.4148 44.9347 21.3619 44.8383C21.3096 44.7544 21.2644 44.6668 21.2266 44.5756C21.1884 44.4849 21.1576 44.3911 21.1345 44.2957C21.1113 44.1998 21.0962 44.1033 21.0886 44.0053C21.0811 43.9073 21.0816 43.8093 21.0897 43.7113C21.0983 43.6133 21.114 43.5169 21.1382 43.4215C21.1619 43.3261 21.1932 43.2328 21.232 43.1421C21.2714 43.0514 21.3172 42.9638 21.37 42.8804C21.4228 42.7965 21.4827 42.7173 21.5484 42.6422C22.3457 41.7477 23.2065 40.9132 24.1293 40.1391C24.2344 40.0526 24.3471 39.9765 24.4678 39.9113C24.588 39.8461 24.7142 39.793 24.8457 39.7518C24.9767 39.7106 25.1114 39.6825 25.2484 39.6668C25.3853 39.6512 25.5227 39.6486 25.6607 39.6595C25.7982 39.6699 25.9335 39.6934 26.0666 39.7299C26.1992 39.7664 26.327 39.8154 26.4499 39.8758C26.5728 39.9368 26.6887 40.0088 26.797 40.0917C26.9048 40.1745 27.004 40.2668 27.0935 40.369ZM12.7891 26.7681C12.6948 26.5726 12.5746 26.3933 12.4291 26.2301C12.283 26.067 12.117 25.9262 11.9305 25.8079C11.7439 25.6901 11.544 25.5984 11.3316 25.5343C11.1187 25.4701 10.9009 25.4347 10.6777 25.4295C10.2028 25.5859 9.75761 25.7991 9.34093 26.0691C8.51675 26.7728 7.73839 27.5213 7.00638 28.3142C6.95786 28.3632 6.91151 28.4142 6.86785 28.4674C6.82418 28.5211 6.78322 28.5764 6.74548 28.6337C6.70721 28.691 6.67272 28.7499 6.64091 28.8109C6.60857 28.8714 6.58 28.9334 6.55467 28.997C6.52933 29.0606 6.50723 29.1253 6.48837 29.1909C6.4695 29.2561 6.45441 29.3228 6.44255 29.3895C6.43015 29.4568 6.42206 29.5245 6.41721 29.5923C6.41182 29.6601 6.41075 29.7278 6.41236 29.7961C6.41452 29.8644 6.41991 29.9322 6.42907 29.9994C6.43824 30.0672 6.45063 30.1339 6.4668 30.2001C6.48244 30.2663 6.50184 30.332 6.52448 30.3961C6.54712 30.4607 6.57299 30.5238 6.60264 30.5858C6.63175 30.6479 6.66409 30.7083 6.69913 30.7667C6.7347 30.8256 6.77298 30.883 6.81448 30.9377C6.85599 30.993 6.89965 31.0461 6.94654 31.0967C6.99344 31.1478 7.04249 31.1962 7.09478 31.2421C7.19127 31.3375 7.29692 31.423 7.41119 31.4986C7.52493 31.5736 7.64513 31.6383 7.77234 31.6914C7.89902 31.7441 8.03 31.7853 8.16476 31.8139C8.30006 31.8426 8.43643 31.8583 8.57443 31.8614C8.71242 31.865 8.84987 31.8551 8.98625 31.8327C9.12208 31.8103 9.25523 31.7754 9.38406 31.7285C9.51342 31.681 9.63686 31.6226 9.75437 31.5523C9.87242 31.4819 9.98184 31.4016 10.0832 31.3109C10.9165 30.5827 11.7094 29.8149 12.4614 29.0074C12.5347 28.935 12.6015 28.8578 12.6619 28.775C12.7223 28.6926 12.7757 28.6061 12.822 28.5154C12.8684 28.4247 12.9066 28.3308 12.9374 28.2339C12.9686 28.1375 12.9913 28.0389 13.0058 27.9389C13.0204 27.8388 13.0268 27.7382 13.0247 27.637C13.0231 27.5359 13.0128 27.4353 12.9945 27.3357C12.9762 27.2362 12.9498 27.1387 12.9153 27.0433C12.8808 26.9474 12.8387 26.8551 12.7891 26.7665V26.7681ZM17.192 30.8142C17.0885 30.7224 16.9769 30.6406 16.8567 30.5692C16.737 30.4972 16.6114 30.4373 16.4799 30.3888C16.3484 30.3403 16.2136 30.3038 16.0751 30.2799C15.9366 30.2559 15.7969 30.2444 15.6557 30.246C15.515 30.2475 15.376 30.2621 15.238 30.2887C15.1 30.3158 14.9658 30.3549 14.8353 30.4065C14.7049 30.4581 14.5809 30.5207 14.4628 30.5947C14.3448 30.6692 14.2348 30.7532 14.1329 30.8475C13.3573 31.5304 12.621 32.2518 11.9251 33.0113C11.669 33.3553 11.4674 33.7265 11.3197 34.1252C11.3062 34.2368 11.3019 34.3489 11.3062 34.4609C11.3106 34.573 11.324 34.684 11.3461 34.794C11.3682 34.904 11.399 35.0119 11.4383 35.1177C11.4777 35.223 11.5251 35.3252 11.5806 35.4237C11.6361 35.5222 11.6987 35.6161 11.7693 35.7052C11.8399 35.7943 11.917 35.8777 12.0005 35.9554C12.0841 36.0331 12.1736 36.104 12.2684 36.1686C12.3633 36.2327 12.463 36.2901 12.567 36.3396C12.6614 36.3891 12.7589 36.4318 12.8603 36.4668C12.9616 36.5017 13.0651 36.5288 13.1708 36.5476C13.2764 36.5668 13.3831 36.5783 13.4904 36.5814C13.5977 36.5841 13.705 36.5794 13.8117 36.5658C13.9184 36.5528 14.023 36.5314 14.1265 36.5022C14.2294 36.4735 14.3297 36.4365 14.4273 36.3922C14.5243 36.3479 14.6175 36.2963 14.7059 36.2379C14.7949 36.1796 14.879 36.1149 14.9571 36.0435C15.7705 35.332 16.5554 34.5871 17.2938 33.8026C17.344 33.7525 17.3919 33.7004 17.4372 33.6462C17.482 33.5915 17.524 33.5352 17.5634 33.4768C17.6027 33.4179 17.6388 33.3579 17.6712 33.2959C17.704 33.2334 17.7337 33.1703 17.7601 33.1051C17.786 33.04 17.8086 32.9738 17.828 32.907C17.8474 32.8398 17.8631 32.7715 17.8755 32.7027C17.8873 32.6339 17.8959 32.5651 17.9008 32.4952C17.9056 32.4259 17.9073 32.3561 17.9046 32.2867C17.9024 32.2169 17.8965 32.1476 17.8868 32.0782C17.8771 32.0094 17.8641 31.9406 17.8469 31.8728C17.8302 31.8051 17.8102 31.7384 17.786 31.6722C17.7623 31.6065 17.7353 31.5418 17.7046 31.4788C17.6744 31.4157 17.6404 31.3542 17.6032 31.2942C17.5666 31.2343 17.5267 31.1764 17.4836 31.1207C17.4405 31.0649 17.3946 31.0107 17.3461 30.9596C17.2971 30.908 17.2459 30.859 17.192 30.8126V30.8142ZM22.8076 37.3826C22.7214 36.2233 22.3403 35.528 21.4665 35.1485C21.3673 35.1016 21.2649 35.063 21.1593 35.0317C21.0536 35.0004 20.9463 34.9775 20.8369 34.9629C20.7275 34.9478 20.6175 34.9415 20.507 34.9436C20.3965 34.9457 20.2871 34.9561 20.1782 34.9749C20.0699 34.9942 19.9631 35.0208 19.8591 35.0562C19.7545 35.0911 19.6537 35.1339 19.5567 35.1845C19.4591 35.235 19.3664 35.2929 19.2786 35.3575C19.1907 35.4221 19.1088 35.4936 19.0328 35.5707C18.2975 36.2259 17.5941 36.9197 16.9047 37.6177C16.8513 37.6662 16.8006 37.7173 16.7521 37.771C16.7041 37.8247 16.6589 37.8804 16.6168 37.9383C16.5742 37.9962 16.5354 38.0561 16.4993 38.1176C16.4632 38.1796 16.4303 38.2427 16.4007 38.3079C16.371 38.3725 16.3446 38.4387 16.322 38.506C16.2993 38.5737 16.2799 38.642 16.2643 38.7113C16.2487 38.7807 16.2368 38.8505 16.2282 38.9209C16.2201 38.9913 16.2152 39.0622 16.2142 39.133C16.2131 39.2039 16.2152 39.2748 16.2217 39.3452C16.2276 39.4161 16.2379 39.4865 16.2513 39.5558C16.2648 39.6256 16.2815 39.6944 16.3026 39.7627C16.323 39.8305 16.3468 39.8977 16.3742 39.9634C16.4017 40.0291 16.433 40.0932 16.467 40.1563C16.5015 40.2188 16.5387 40.2798 16.5791 40.3387C16.6195 40.3982 16.6632 40.455 16.7095 40.5102C16.7559 40.565 16.8049 40.6176 16.8567 40.6677C16.909 40.7177 16.9634 40.7651 17.0205 40.81C17.0777 40.8548 17.1364 40.8965 17.1979 40.9356C17.2593 40.9747 17.3224 41.0106 17.3876 41.0435C17.4523 41.0763 17.5192 41.1066 17.5871 41.1331C17.655 41.1597 17.7245 41.1832 17.7946 41.203C17.8652 41.2228 17.9364 41.2395 18.0086 41.2525C18.0808 41.2661 18.1536 41.2754 18.2264 41.2817C18.2997 41.288 18.373 41.2906 18.4463 41.29C18.5196 41.289 18.5929 41.2848 18.6657 41.277C18.739 41.2692 18.8112 41.2577 18.8829 41.2431C18.9551 41.2285 19.0258 41.2103 19.0958 41.1884C19.1659 41.167 19.2344 41.1425 19.3017 41.1144C19.3691 41.0862 19.4349 41.055 19.499 41.0205C19.5637 40.9861 19.6257 40.9486 19.6861 40.908C19.7464 40.8678 19.8047 40.8246 19.8607 40.7787C19.9168 40.7328 19.9701 40.6843 20.0213 40.6332C20.7463 39.9994 21.4342 39.3296 22.0842 38.6238C22.3753 38.2365 22.6163 37.8221 22.8076 37.3805V37.3826ZM55.7884 6.7426C55.3485 6.12751 54.8613 5.55047 54.3249 5.012C53.7934 4.45789 53.221 3.94601 52.6086 3.47687C51.8087 2.8795 50.9479 2.38012 50.0267 1.97875C48.7837 1.4163 47.4943 0.981567 46.1591 0.675062C44.8239 0.368558 43.4704 0.196018 42.0986 0.157966C40.703 0.191327 39.3317 0.383674 37.9836 0.734487C36.636 1.0853 35.3499 1.58519 34.1257 2.23365C32.1555 3.36375 30.4069 4.75449 28.8809 6.40638C26.5733 8.65304 24.2317 10.8684 21.9285 13.1182C21.8508 13.1875 21.7775 13.261 21.7085 13.3387C21.6395 13.4159 21.5748 13.4966 21.515 13.5811C21.4552 13.6655 21.4007 13.7526 21.3511 13.8428C21.301 13.9329 21.2568 14.0257 21.2175 14.1206C21.1787 14.2155 21.1447 14.3124 21.1167 14.4109C21.0892 14.5095 21.0665 14.6096 21.0504 14.7107C21.0337 14.8113 21.0229 14.9129 21.018 15.0151C21.0132 15.1173 21.0142 15.2194 21.0213 15.3216C21.0283 15.4232 21.0412 15.5249 21.0595 15.6255C21.0784 15.7261 21.1027 15.8251 21.1323 15.9237C21.1625 16.0217 21.1981 16.1176 21.239 16.2119C21.28 16.3063 21.3263 16.3975 21.3781 16.4872C21.4298 16.5763 21.4864 16.6623 21.5479 16.7457C21.6093 16.8286 21.6756 16.9083 21.7463 16.9844C21.8169 17.0605 21.8918 17.1325 21.971 17.2002C22.0497 17.2685 22.1322 17.3316 22.2185 17.391C22.3521 17.4859 22.4928 17.5688 22.6411 17.6397C22.7893 17.7111 22.9429 17.7689 23.1019 17.8138C23.2609 17.8586 23.4227 17.8899 23.5871 17.9071C23.7515 17.9243 23.9164 17.9274 24.0814 17.917C24.2468 17.906 24.4096 17.8815 24.5703 17.843C24.7309 17.8044 24.8867 17.7528 25.0381 17.6876C25.1891 17.623 25.3335 17.5453 25.4704 17.4557C25.6079 17.3665 25.7356 17.2659 25.8548 17.1544C26.9312 16.176 32.3652 11.0587 33.9257 9.54076C42.119 17.3895 48.1158 23.1839 49.5588 24.6147C50.5625 25.6093 51.4874 26.5398 51.4874 26.5398C52.1338 27.196 52.7908 27.8674 53.4786 28.5612C53.9444 27.9936 54.4618 27.4264 54.9658 26.8364C55.4736 26.2437 55.9458 25.6255 56.3835 24.9817C57.1257 23.8375 57.7208 22.6256 58.1682 21.3459C58.6162 20.0662 58.904 18.7536 59.0328 17.4088C59.0792 16.6764 59.0733 15.944 59.0151 15.2121C58.9568 14.4803 58.8463 13.7557 58.6846 13.039C58.5224 12.3217 58.31 11.619 58.047 10.9305C57.7839 10.2419 57.4734 9.57412 57.115 8.92723C56.722 8.17087 56.28 7.44266 55.7884 6.7426ZM33.9225 12.9066C31.658 15.0365 28.1473 18.3632 27.2714 19.1065C27.1458 19.2076 27.0159 19.303 26.8811 19.3922C26.7463 19.4818 26.6073 19.5652 26.465 19.6424C26.3221 19.7195 26.176 19.7904 26.0267 19.8545C25.8774 19.9186 25.7254 19.976 25.5707 20.0271C25.416 20.0776 25.2591 20.1214 25.1001 20.1579C24.9411 20.1949 24.7805 20.2246 24.6188 20.247C24.4571 20.2695 24.2943 20.2851 24.1315 20.2929C23.9682 20.3013 23.8048 20.3023 23.6415 20.2955C23.4782 20.2893 23.3154 20.2757 23.1537 20.2549C22.9914 20.234 22.8308 20.2059 22.6712 20.1709C22.5122 20.136 22.3548 20.0938 22.199 20.0448C22.0438 19.9958 21.8913 19.9395 21.7409 19.8769C21.591 19.8144 21.4444 19.7451 21.3005 19.6695C21.1571 19.5939 21.0175 19.5121 20.8816 19.424C20.7463 19.3359 20.6148 19.242 20.4882 19.142C20.3615 19.0424 20.2397 18.9371 20.1227 18.8266C20.0057 18.7166 19.8941 18.6009 19.7879 18.4805C19.6818 18.3601 19.582 18.235 19.4882 18.1057C19.3939 17.9764 19.3066 17.843 19.2252 17.7059C19.1443 17.5683 19.07 17.428 19.002 17.2836C18.9347 17.1398 18.8743 16.9933 18.8204 16.8437C18.767 16.6941 18.7207 16.5429 18.6819 16.3892C18.643 16.2354 18.6112 16.0806 18.5875 15.9242C18.5633 15.7678 18.5471 15.6104 18.5379 15.453C18.5293 15.295 18.5277 15.1371 18.5342 14.9786C18.5401 14.8207 18.5541 14.6632 18.5757 14.5069C18.5972 14.35 18.6258 14.1946 18.6624 14.0403C18.6986 13.886 18.7422 13.7338 18.7934 13.5837C18.8446 13.4336 18.9023 13.2855 18.9675 13.1406C19.0328 12.9957 19.105 12.8539 19.1837 12.7153C19.2624 12.5771 19.3481 12.4421 19.4397 12.3113C19.5314 12.1805 19.6295 12.0543 19.7335 11.9318C20.424 11.1384 21.2088 10.4207 21.971 9.68411C23.863 7.8456 25.7685 6.01231 27.7144 4.13627C27.4492 3.90587 27.177 3.68381 26.8973 3.47113C26.6175 3.25794 26.3302 3.05412 26.0364 2.85917C25.7427 2.66421 25.4424 2.47916 25.1362 2.30402C24.8295 2.12835 24.5174 1.96259 24.1994 1.80725C23.8819 1.65139 23.559 1.50596 23.2313 1.37095C22.9036 1.23594 22.5715 1.11188 22.2352 0.997726C21.8988 0.88409 21.5592 0.781401 21.2158 0.689136C20.8725 0.596872 20.5264 0.516076 20.1777 0.446226C19.8289 0.375855 19.478 0.316952 19.1255 0.269517C18.7724 0.222082 18.4188 0.185593 18.063 0.161094C17.7078 0.136073 17.3521 0.12252 16.9958 0.119914C16.64 0.117828 16.2837 0.127211 15.9285 0.147541C15.5727 0.16787 15.218 0.199667 14.865 0.242932C14.5113 0.286198 14.1599 0.340409 13.8101 0.406089C13.4602 0.471768 13.1131 0.548395 12.7686 0.635967C12.4242 0.724061 12.083 0.822581 11.7456 0.932046C4.92786 3.17245 0.975127 7.88053 0.171967 14.816C0.102971 15.3722 0.0663165 15.9299 0.0614651 16.4898C0.0560748 17.0501 0.0830264 17.6084 0.141781 18.1656C0.199997 18.7229 0.290015 19.2749 0.411298 19.8222C0.532581 20.3701 0.684588 20.9096 0.867321 21.4407C1.05005 21.9719 1.26243 22.4921 1.50446 23.0009C1.74648 23.5097 2.01654 24.0038 2.31463 24.4839C2.61271 24.964 2.93721 25.4269 3.28812 25.872C3.63903 26.3177 4.0142 26.7431 4.41362 27.1486C5.5208 26.1707 6.53742 25.2486 7.57614 24.3562C7.64352 24.2942 7.71197 24.2342 7.78259 24.1764C7.85374 24.119 7.92597 24.0632 7.99982 24.0095C8.0742 23.9559 8.14967 23.9043 8.22729 23.8553C8.30437 23.8057 8.38307 23.7588 8.46339 23.7145C8.5437 23.6697 8.6251 23.6275 8.70811 23.5873C8.79058 23.5472 8.87467 23.5097 8.95984 23.4747C9.045 23.4398 9.13125 23.407 9.21857 23.3767C9.30536 23.3465 9.39376 23.3194 9.4827 23.2944C9.5711 23.2693 9.66112 23.2469 9.75114 23.2266C9.84116 23.2068 9.93225 23.1896 10.0233 23.175C10.115 23.1604 10.2066 23.1489 10.2988 23.1396C10.3904 23.1302 10.4831 23.1234 10.5753 23.1197C10.668 23.1156 10.7602 23.1145 10.8529 23.1161C10.9456 23.1171 11.0378 23.1213 11.13 23.1281C11.2227 23.1349 11.3143 23.1442 11.4065 23.1562C11.4981 23.1687 11.5892 23.1833 11.6798 23.2005C11.7709 23.2177 11.8609 23.2381 11.9504 23.2605C12.0404 23.2834 12.1288 23.3084 12.2167 23.3361C12.3051 23.3637 12.3919 23.3939 12.4781 23.4268C12.5644 23.4596 12.6495 23.4951 12.7331 23.5326C12.8172 23.5701 12.9002 23.6103 12.9816 23.653C13.063 23.6952 13.1427 23.7401 13.2214 23.787C13.3001 23.8344 13.3778 23.8839 13.4532 23.935C13.5287 23.9866 13.6031 24.0408 13.6753 24.0966C13.7475 24.1524 13.8181 24.2102 13.8866 24.2702C13.9556 24.3301 14.0224 24.3922 14.0871 24.4557C14.1523 24.5199 14.2149 24.585 14.2758 24.6528C14.3367 24.72 14.3955 24.7894 14.4521 24.8603C14.5086 24.9311 14.5631 25.0036 14.6148 25.0776C14.6671 25.1516 14.7167 25.2267 14.7642 25.3039C14.8116 25.3805 14.8569 25.4587 14.8989 25.5384C14.9415 25.6177 14.9819 25.6984 15.0197 25.7803C15.2795 26.4376 15.4789 27.1111 15.618 27.8018C18.559 28.0514 20.161 29.6434 20.424 32.5098C23.4399 32.7741 25.0678 34.3504 25.3098 37.209C25.395 37.2362 25.4823 37.256 25.5712 37.2685C25.6602 37.2706 25.7497 37.2758 25.8386 37.2831C25.9281 37.2904 26.017 37.3003 26.1054 37.3123C26.1938 37.3242 26.2822 37.3388 26.3696 37.356C26.4574 37.3732 26.5447 37.3925 26.631 37.4144C26.7178 37.4363 26.8035 37.4603 26.8886 37.4869C26.9738 37.5135 27.0579 37.5427 27.1414 37.5739C27.225 37.6052 27.3075 37.6386 27.3889 37.674C27.4703 37.71 27.5506 37.748 27.6298 37.7882C27.709 37.8283 27.7872 37.8705 27.8638 37.9148C27.9403 37.9597 28.0158 38.0061 28.0896 38.0545C28.164 38.1035 28.2362 38.1541 28.3074 38.2068C28.3785 38.2594 28.4475 38.3136 28.5154 38.3699C28.5834 38.4267 28.6497 38.4846 28.7138 38.5451C28.778 38.605 28.8405 38.6665 28.9014 38.7301C28.9623 38.7937 29.0211 38.8589 29.0782 38.9256C29.1348 38.9923 29.1898 39.0606 29.2426 39.1304C29.2954 39.2003 29.3461 39.2712 29.3951 39.3436C29.4437 39.4166 29.49 39.4901 29.5348 39.5652C29.579 39.6402 29.621 39.7169 29.6609 39.794C29.7008 39.8717 29.7385 39.9499 29.7736 40.0296C29.8086 40.1089 29.8415 40.1897 29.8722 40.271C29.9029 40.3523 29.9309 40.4341 29.9563 40.517C29.9822 40.5999 30.0053 40.6833 30.0264 40.7677C30.0468 40.8517 30.0652 40.9366 30.0808 41.0216C30.097 41.1066 30.1099 41.192 30.1207 41.2781C30.1315 41.3641 30.1396 41.4501 30.1455 41.5366C30.1514 41.6226 30.1541 41.7091 30.1546 41.7957C30.1557 41.8822 30.1536 41.9687 30.1493 42.0547C30.1444 42.1413 30.1374 42.2278 30.1277 42.3138C30.1185 42.3998 30.1061 42.4853 30.0916 42.5708C30.077 42.6558 30.0598 42.7407 30.0404 42.8252C30.021 42.9096 29.9989 42.9935 29.9741 43.0764C29.952 43.176 29.9525 43.275 29.9751 43.3735C29.9983 43.4726 30.0414 43.5628 30.1051 43.643C30.9756 44.5052 31.8434 45.3747 32.776 46.1722C32.8698 46.2442 32.9689 46.3078 33.0741 46.363C33.1786 46.4188 33.2875 46.4652 33.4007 46.5027C33.5139 46.5397 33.6293 46.5679 33.7473 46.5861C33.8654 46.6049 33.9845 46.6132 34.1041 46.6122C34.2233 46.6111 34.3419 46.6002 34.4599 46.5793C34.5774 46.559 34.6922 46.5288 34.8044 46.4892C34.917 46.4495 35.0248 46.4011 35.1288 46.3432C35.2323 46.2859 35.3304 46.2202 35.4226 46.1467C35.4884 46.0982 35.5509 46.0461 35.6107 45.9903C35.67 45.935 35.7261 45.8761 35.7789 45.8146C35.8318 45.7531 35.8808 45.6885 35.9261 45.6218C35.9719 45.5545 36.0129 45.4852 36.0501 45.4138C36.0873 45.3424 36.1207 45.2689 36.1492 45.1938C36.1778 45.1187 36.2021 45.0426 36.222 44.965C36.242 44.8868 36.257 44.8086 36.2678 44.7288C36.2786 44.6496 36.2851 44.5699 36.2862 44.4901C36.2878 44.4098 36.2845 44.3301 36.277 44.2503C36.2689 44.1706 36.2565 44.0913 36.2393 44.0131C36.2225 43.9349 36.201 43.8578 36.1751 43.7817C36.1487 43.7056 36.1185 43.6311 36.084 43.5586C36.0495 43.4856 36.0107 43.4152 35.9676 43.3464C35.925 43.2782 35.8781 43.212 35.8274 43.1489C35.7773 43.0853 35.7229 43.0248 35.6657 42.9675C35.6081 42.9096 35.5471 42.8554 35.4835 42.8043C33.2891 40.6812 31.0839 38.568 28.8912 36.4428C28.7936 36.3479 28.7063 36.2447 28.6286 36.1337L24.8134 32.4447C24.7595 32.3905 24.7115 32.3321 24.6689 32.2685C24.6269 32.2054 24.5913 32.1387 24.5622 32.0688C24.5336 31.999 24.512 31.9271 24.4975 31.853C24.4829 31.779 24.4765 31.7045 24.477 31.6294C24.4775 31.5538 24.4856 31.4798 24.5018 31.4058C24.5174 31.3323 24.5401 31.2604 24.5703 31.191C24.6004 31.1217 24.6371 31.056 24.6802 30.9935C24.7239 30.9309 24.7729 30.8731 24.8279 30.8199C24.8829 30.7667 24.9427 30.7188 25.0074 30.6771C25.0721 30.6348 25.1406 30.5994 25.2122 30.5702C25.2839 30.5415 25.3578 30.5191 25.4343 30.504C25.5103 30.4889 25.5874 30.4811 25.665 30.48C25.7432 30.4795 25.8203 30.4863 25.8968 30.5004C25.9734 30.5139 26.0477 30.5348 26.12 30.5629C26.1922 30.5905 26.2612 30.6249 26.3264 30.6661C26.3917 30.7068 26.4526 30.7532 26.5086 30.8058L30.3444 34.5151C30.4479 34.585 30.5454 34.6627 30.6376 34.7466C31.3281 35.3815 32.0224 36.0127 32.7 36.6596C34.282 38.1718 35.8404 39.7075 37.4397 41.2025C37.4931 41.2556 37.5491 41.3062 37.6079 41.3536C37.6666 41.4011 37.7275 41.4454 37.7911 41.4866C37.8547 41.5277 37.9205 41.5658 37.9879 41.6007C38.0558 41.6351 38.1253 41.6664 38.1965 41.694C38.2671 41.7217 38.3399 41.7456 38.4132 41.766C38.487 41.7858 38.5614 41.8024 38.6369 41.8155C38.7123 41.828 38.7884 41.8369 38.8649 41.8421C38.9409 41.8468 39.0174 41.8483 39.094 41.8457C39.1705 41.8426 39.2465 41.8363 39.3225 41.8259C39.3985 41.8155 39.4735 41.8014 39.5479 41.7832C39.6222 41.7654 39.695 41.7435 39.7672 41.718C39.8389 41.693 39.9095 41.6638 39.978 41.6315C40.047 41.5986 40.1138 41.5627 40.1785 41.5236C40.2437 41.4845 40.3063 41.4417 40.3666 41.3964C40.427 41.3505 40.4847 41.302 40.5397 41.2504C40.5947 41.1993 40.6469 41.1451 40.696 41.0883C40.7871 40.9804 40.8663 40.8652 40.9348 40.7422C41.0027 40.6197 41.0582 40.492 41.1008 40.3591C41.1439 40.2261 41.173 40.0901 41.1892 39.952C41.2048 39.8133 41.207 39.6752 41.1957 39.536C41.1844 39.3973 41.1596 39.2608 41.1208 39.1268C41.0825 38.9928 41.0313 38.863 40.9671 38.7384C40.903 38.6139 40.827 38.4961 40.7397 38.3855C40.6523 38.275 40.5548 38.1734 40.4475 38.0806C38.21 35.9022 35.9498 33.7385 33.7004 31.5658C32.6283 30.5306 31.5427 29.5079 30.4986 28.4455C30.4393 28.3929 30.3864 28.3355 30.3401 28.2725C30.2932 28.2094 30.2533 28.1427 30.2209 28.0718C30.1886 28.0009 30.1638 27.9279 30.1471 27.8518C30.1299 27.7762 30.1212 27.6996 30.1207 27.6219C30.1201 27.5448 30.1277 27.4681 30.1433 27.392C30.159 27.3159 30.1827 27.2424 30.2139 27.171C30.2452 27.0996 30.284 27.0324 30.3298 26.9688C30.3757 26.9052 30.4274 26.8468 30.4856 26.7931C30.5422 26.7389 30.6031 26.6899 30.6694 26.6466C30.7357 26.6034 30.8058 26.5664 30.8791 26.5366C30.953 26.5064 31.0284 26.483 31.1066 26.4673C31.1847 26.4512 31.264 26.4423 31.3438 26.4413C31.4235 26.4402 31.5028 26.4459 31.5815 26.4595C31.6602 26.4731 31.7367 26.4939 31.8111 26.522C31.886 26.5497 31.9566 26.5841 32.0246 26.6253C32.0919 26.6664 32.155 26.7134 32.2132 26.7665C32.3631 26.8869 32.5048 27.0157 32.6385 27.1528C35.8264 30.2215 39.005 33.298 42.2101 36.349C42.56 36.6826 42.9713 36.9145 43.444 37.0443C43.5572 37.072 43.672 37.0907 43.7884 37.1001C43.9043 37.11 44.0208 37.11 44.1372 37.1011C44.2536 37.0923 44.3684 37.074 44.4816 37.0464C44.5948 37.0193 44.7048 36.9828 44.8121 36.938C44.9193 36.8932 45.0217 36.84 45.1198 36.7785C45.2174 36.7175 45.3096 36.6487 45.3958 36.5726C45.4821 36.4965 45.5613 36.4141 45.6335 36.3255C45.7058 36.2369 45.7699 36.1431 45.8265 36.0445C45.8853 35.9439 45.9354 35.8397 45.9769 35.7313C46.0184 35.6228 46.0502 35.5118 46.0729 35.3987C46.0955 35.2851 46.1084 35.1704 46.1117 35.0552C46.1149 34.9395 46.1084 34.8248 46.0923 34.7101C46.0761 34.5959 46.0508 34.4833 46.0152 34.3728C45.9801 34.2623 45.9359 34.1555 45.8826 34.0523C45.8292 33.9491 45.7678 33.8505 45.6977 33.7567C45.6282 33.6629 45.5505 33.5753 45.4659 33.494C43.0241 31.1102 40.5607 28.7447 38.1054 26.373C37.2262 25.5228 36.3255 24.6851 35.4609 23.8172C35.3978 23.7651 35.3407 23.7072 35.2895 23.6436C35.2383 23.58 35.1941 23.5123 35.1569 23.4398C35.1197 23.3679 35.09 23.2928 35.0685 23.2151C35.0469 23.1375 35.034 23.0582 35.0286 22.978C35.0232 22.8977 35.0264 22.8174 35.0383 22.7377C35.0496 22.6579 35.069 22.5797 35.097 22.5041C35.1245 22.428 35.1596 22.3556 35.2022 22.2862C35.2453 22.2169 35.2943 22.1528 35.3504 22.0934C35.4113 22.0345 35.4776 21.9823 35.5493 21.9359C35.621 21.8901 35.6965 21.8515 35.7762 21.8202C35.856 21.7884 35.9379 21.765 36.0226 21.7493C36.1067 21.7337 36.1924 21.7264 36.2781 21.7274C36.3643 21.728 36.4489 21.7368 36.5336 21.754C36.6177 21.7712 36.6991 21.7962 36.7778 21.8291C36.857 21.8619 36.9319 21.9021 37.0025 21.9495C37.0731 21.9969 37.1384 22.0506 37.1982 22.1101C37.3087 22.2023 37.4047 22.3118 37.5081 22.4119C40.675 25.4654 43.8439 28.5185 47.0156 31.57C47.0911 31.655 47.173 31.7337 47.2609 31.8072C47.3482 31.8807 47.4409 31.9479 47.5385 32.0084C47.6361 32.0694 47.7374 32.1225 47.843 32.1694C47.9487 32.2158 48.057 32.2544 48.1686 32.2862C48.2797 32.3175 48.3929 32.3409 48.5077 32.3566C48.6225 32.3722 48.7384 32.38 48.8543 32.3795C48.9702 32.379 49.0855 32.3707 49.2003 32.3545C49.3151 32.3378 49.4278 32.3138 49.5388 32.2815L49.6014 32.2607C49.6908 32.2257 49.7771 32.1856 49.8612 32.1397C49.9447 32.0944 50.0251 32.0433 50.1021 31.9875C50.1792 31.9318 50.252 31.8713 50.321 31.8066C50.39 31.7415 50.4547 31.6727 50.5145 31.5997C50.5738 31.5267 50.6288 31.4506 50.6784 31.3703C50.7274 31.2906 50.7716 31.2082 50.8099 31.1227C50.8487 31.0378 50.881 30.9502 50.908 30.8611C50.9349 30.7714 50.9554 30.6807 50.97 30.589C50.9845 30.4967 50.9932 30.4044 50.9953 30.3111C50.9975 30.2183 50.9937 30.1256 50.9835 30.0328C50.9732 29.9405 50.957 29.8488 50.9349 29.7586C50.9123 29.6679 50.8843 29.5793 50.8498 29.4922C50.8153 29.4052 50.7754 29.3207 50.7301 29.2389C50.6843 29.1571 50.6336 29.0778 50.5776 29.0022C50.5215 28.9267 50.4606 28.8552 50.3948 28.787C50.3291 28.7192 50.259 28.6556 50.1846 28.5962C46.5984 25.1256 38.5021 17.3097 33.9225 12.9066Z" fill="white"/>
</g>
<path d="M76.9797 22.0788V35.4473H69.1254V2.12988H76.9797V15.4176H88.0903V2.12988H95.9387V35.4473H88.0903V22.0788H76.9797Z" fill="white"/>
<path d="M122.628 26.0756H107.092C107.092 27.529 107.578 28.6074 108.553 29.311C109.527 30.0118 110.584 30.3607 111.726 30.3607C112.922 30.3607 113.869 30.2078 114.565 29.8993C115.26 29.5879 116.053 28.9737 116.945 28.0538L122.294 30.6433C120.064 34.2507 116.36 36.0529 111.184 36.0529C107.954 36.0529 105.184 34.9846 102.87 32.8464C100.559 30.7053 99.405 28.1273 99.405 25.1125C99.405 22.0948 100.559 19.5096 102.87 17.3555C105.184 15.1986 107.954 14.1201 111.184 14.1201C114.578 14.1201 117.341 15.0703 119.473 16.9691C121.604 18.8694 122.67 21.5815 122.67 25.1067C122.67 25.5912 122.655 25.9141 122.628 26.0756ZM107.301 22.1193H115.442C115.275 21.0437 114.835 20.2161 114.124 19.6394C113.415 19.0598 112.505 18.7685 111.392 18.7685C110.167 18.7685 109.193 19.0785 108.47 19.697C107.745 20.317 107.356 21.1244 107.301 22.1193Z" fill="white"/>
<path d="M126.133 35.4473V0.711182H133.529V35.4473H126.133Z" fill="white"/>
<path d="M160.592 17.2921C162.596 19.4072 163.597 22.0011 163.597 25.0721C163.597 28.1403 162.596 30.7384 160.592 32.8637C158.588 34.9903 156.038 36.0529 152.946 36.0529C150.107 36.0529 147.769 35.1922 145.933 33.4692V45.9495H138.537V14.7257H145.849V17.0729H145.933C147.769 15.1049 150.107 14.1201 152.946 14.1201C156.038 14.1201 158.588 15.1784 160.592 17.2921ZM154.3 28.5844C155.262 27.6659 155.743 26.4937 155.743 25.0663C155.743 23.6404 155.284 22.4769 154.365 21.5772C153.447 20.6746 152.236 20.2219 150.733 20.2219C149.286 20.2219 148.095 20.6804 147.161 21.5945C146.231 22.51 145.766 23.6678 145.766 25.0663C145.766 26.4937 146.244 27.6659 147.203 28.5844C148.165 29.4999 149.341 29.957 150.733 29.957C152.153 29.957 153.341 29.4999 154.3 28.5844Z" fill="white"/>
<path d="M186.318 2.12988V28.7861H198.18V35.4473H178.464V2.12988H186.318Z" fill="white"/>
<path d="M202.771 3.17947C203.632 2.3461 204.663 1.92798 205.86 1.92798C207.06 1.92798 208.092 2.3461 208.955 3.17947C209.817 4.01428 210.249 5.01057 210.249 6.1669C210.249 7.32468 209.817 8.32097 208.955 9.15434C208.092 9.98914 207.06 10.4058 205.86 10.4058C204.663 10.4058 203.632 9.98914 202.771 9.15434C201.907 8.32097 201.476 7.32468 201.476 6.1669C201.476 5.01057 201.907 4.01428 202.771 3.17947ZM202.061 14.7255V35.4472H209.456V14.7255H202.061Z" fill="white"/>
<path d="M214.674 35.4474V14.7257H222.069V16.9115H222.152C224.073 15.0515 226.118 14.1201 228.289 14.1201C229.346 14.1201 230.396 14.2556 231.438 14.5238C232.483 14.7934 233.487 15.213 234.45 15.7811C235.411 16.3463 236.191 17.1479 236.788 18.186C237.387 19.2212 237.688 20.4237 237.688 21.7963V35.4474H230.293V23.7341C230.293 22.6585 229.937 21.7156 229.225 20.9082C228.517 20.1007 227.593 19.697 226.452 19.697C225.339 19.697 224.329 20.1152 223.423 20.9485C222.519 21.7833 222.069 22.7119 222.069 23.7341V35.4474H214.674Z" fill="white"/>
<path d="M263.958 26.0756H248.422C248.422 27.529 248.909 28.6074 249.884 29.311C250.857 30.0118 251.914 30.3607 253.056 30.3607C254.252 30.3607 255.199 30.2078 255.895 29.8993C256.59 29.5879 257.383 28.9737 258.275 28.0538L263.624 30.6433C261.394 34.2507 257.69 36.0529 252.514 36.0529C249.284 36.0529 246.514 34.9846 244.2 32.8464C241.889 30.7053 240.735 28.1273 240.735 25.1125C240.735 22.0948 241.889 19.5096 244.2 17.3555C246.514 15.1986 249.284 14.1201 252.514 14.1201C255.909 14.1201 258.671 15.0703 260.803 16.9691C262.934 18.8694 264 21.5815 264 25.1067C264 25.5912 263.985 25.9141 263.958 26.0756ZM248.631 22.1193H256.772C256.605 21.0437 256.165 20.2161 255.454 19.6394C254.746 19.0598 253.835 18.7685 252.722 18.7685C251.497 18.7685 250.523 19.0785 249.8 19.697C249.076 20.317 248.686 21.1244 248.631 22.1193Z" fill="white"/>
</svg>
